Coordinates
version=1
nRows=14
nColumns=24
inDegrees=yes

Units are S.I. units (second, meters, Newtons, ...)
Angles are in degrees.

endheader
time	pelvis_tilt	pelvis_list	pelvis_rotation	pelvis_tx	pelvis_ty	pelvis_tz	hip_flexion_r	hip_adduction_r	hip_rotation_r	knee_angle_r	ankle_angle_r	subtalar_angle_r	mtp_angle_r	hip_flexion_l	hip_adduction_l	hip_rotation_l	knee_angle_l	ankle_angle_l	subtalar_angle_l	mtp_angle_l	lumbar_extension	lumbar_bending	lumbar_rotation
      0.01000000	     61.12307661	      5.31243349	      8.98212047	      0.77237530	      1.08423628	     -0.27312492	     -3.66214788	    -12.20494654	     -3.95263694	    -52.41760148	    -16.64760462	      0.96957802	     48.61028513	     15.92842531	    -12.29906776	     14.04390259	    -14.24886435	    -20.20333388	     11.02635382	    -33.56447504	      0.00000000	      0.00000000	      0.00000000
      0.02000000	     61.11666759	      5.28995606	      8.98350290	      0.77241186	      1.08426252	     -0.27308141	     -3.65472884	    -12.17602766	     -3.95473828	    -52.40806452	    -16.63908871	      0.97692534	     48.60070331	     15.92351897	    -12.32399874	     14.04700253	    -14.21344556	    -20.21107610	     11.02902856	    -33.56854078	      0.00000000	      0.00000000	      0.00000000
      0.03000000	     61.11265304	      5.27806592	      8.98552123	      0.77243668	      1.08427117	     -0.27305743	     -3.64719271	    -12.16457288	     -3.95885121	    -52.41149497	    -16.63558230	      0.98801949	     48.58800189	     15.92219650	    -12.33634708	     14.04878819	    -14.19627247	    -20.21871604	     11.03173398	    -33.57043772	      0.00000000	      0.00000000	      0.00000000
      0.04000000	     61.10937115	      5.27438561	      8.98796089	      0.77244595	      1.08427024	     -0.27305024	     -3.64000757	    -12.16495304	     -3.96314425	    -52.42191921	    -16.63546813	      1.00089218	     48.57336268	     15.92396288	    -12.33854770	     14.04938299	    -14.19087479	    -20.22664048	     11.03373733	    -33.57061238	      0.00000000	      0.00000000	      0.00000000
      0.05000000	     61.10593888	      5.27612809	      8.99046932	      0.77244525	      1.08426671	     -0.27305384	     -3.63351407	    -12.17129726	     -3.96619383	    -52.43350608	    -16.63703404	      1.01310872	     48.55818382	     15.92818069	    -12.33343856	     14.04846837	    -14.19087763	    -20.23519734	     11.03405108	    -33.56947646	      0.00000000	      0.00000000	      0.00000000
      0.06000000	     61.10249975	      5.28066167	      8.99260629	      0.77244056	      1.08426313	     -0.27306056	     -3.62795715	    -12.17904151	     -3.96757119	    -52.44262056	    -16.63896181	      1.02243729	     48.54374528	     15.93392665	    -12.32383515	     14.04536457	    -14.19200544	    -20.24454480	     11.03176805	    -33.56729062	      0.00000000	      0.00000000	      0.00000000
      0.07000000	     61.09954634	      5.28571571	      8.99404222	      0.77243058	      1.08426075	     -0.27306168	     -3.62363206	    -12.18556206	     -3.96762010	    -52.44833644	    -16.64051751	      1.02739704	     48.53100961	     15.93983696	    -12.31249139	     14.03959165	    -14.19247699	    -20.25453169	     11.02648280	    -33.56415309	      0.00000000	      0.00000000	      0.00000000
      0.08000000	     61.09729474	      5.28973427	      8.99469538	      0.77241591	      1.08425971	     -0.27305579	     -3.62077051	    -12.18997288	     -3.96688709	    -52.45152798	    -16.64148255	      1.02755413	     48.52054850	     15.94431004	    -12.30212929	     14.03151154	    -14.19222436	    -20.26464067	     11.01863936	    -33.56005343	      0.00000000	      0.00000000	      0.00000000
      0.09000000	     61.09571970	      5.29211695	      8.99460724	      0.77240541	      1.08425799	     -0.27305146	     -3.61929846	    -12.19235501	     -3.96569691	    -52.45341807	    -16.64196036	      1.02352259	     48.51256061	     15.94621922	    -12.29493212	     14.02252374	    -14.19166539	    -20.27405480	     11.00961317	    -33.55495799	      0.00000000	      0.00000000	      0.00000000
      0.10000000	     61.09490941	      5.29288522	      8.99375960	      0.77240515	      1.08425635	     -0.27305301	     -3.61883751	    -12.19305730	     -3.96402899	    -52.45461194	    -16.64219066	      1.01672135	     48.50694006	     15.94558080	    -12.29172017	     14.01466220	    -14.19083170	    -20.28182767	     11.00143832	    -33.54889721	      0.00000000	      0.00000000	      0.00000000
      0.11000000	     61.09501503	      5.29229129	      8.99213940	      0.77241063	      1.08425627	     -0.27305393	     -3.61893939	    -12.19241981	     -3.96169476	    -52.45499025	    -16.64240185	      1.00897773	     48.50335720	     15.94325376	    -12.29188583	     14.00991182	    -14.18942668	    -20.28706851	     10.99625839	    -33.54202903	      0.00000000	      0.00000000	      0.00000000
      0.12000000	     61.09599287	      5.29071571	      8.98991674	      0.77241208	      1.08425592	     -0.27304660	     -3.61933040	    -12.19083932	     -3.95867394	    -52.45421515	    -16.64269617	      1.00207868	     48.50132412	     15.93996056	    -12.29416927	     14.00962675	    -14.18744425	    -20.28907399	     10.99570825	    -33.53466066	      0.00000000	      0.00000000	      0.00000000
      0.13000000	     61.09765678	      5.28874115	      8.98740488	      0.77240195	      1.08425520	     -0.27303149	     -3.62014488	    -12.18889520	     -3.95533948	    -52.45235669	    -16.64299520	      0.99738892	     48.50023445	     15.93577409	    -12.29748247	     14.01421300	    -14.18548338	    -20.28740039	     11.00045047	    -33.52722247	      0.00000000	      0.00000000	      0.00000000
      0.14000000	     61.09989700	      5.28714383	      8.98497199	      0.77238435	      1.08425579	     -0.27301796	     -3.62204906	    -12.18735759	     -3.95233266	    -52.45010376	    -16.64306903	      0.99563666	     48.49938555	     15.93034193	    -12.30128187	     14.02304245	    -14.18450979	    -20.28193636	     11.01000892	    -33.52020132	      0.00000000	      0.00000000	      0.00000000
